<svg xmlns="http://www.w3.org/2000/svg" xmlns:svg="http://www.w3.org/2000/svg" id="svg2" width="24" height="24" version="1.1" viewBox="0 0 24 24"><metadata id="metadata14"/><path id="path8" fill="none" d="M0 0h24v24h-24z"/><g id="layer1" display="inline"><path id="circle4-5" fill="#000" d="M 8 6.09375 C 6.9396133 6.09375 6.09375 6.9396133 6.09375 8 C 6.09375 9.0603867 6.9396133 9.90625 8 9.90625 L 8 8 L 9.90625 8 C 9.90625 6.9396133 9.0603867 6.09375 8 6.09375 z"/><path id="path6-5" fill="#000" d="M 6.1875 2 L 5.09375 3.1875 L 3.1875 3.1875 C 2.5275 3.1875 2 3.74625 2 4.40625 L 2 11.59375 C 2 12.25375 2.5275 12.8125 3.1875 12.8125 L 8 12.8125 L 8 11 C 6.344 11 5 9.656 5 8 C 5 6.344 6.344 5 8 5 C 9.656 5 11 6.344 11 8 L 14 8 L 14 4.40625 C 14 3.74625 13.4725 3.1875 12.8125 3.1875 L 10.90625 3.1875 L 9.8125 2 L 6.1875 2 z"/></g><g id="layer2" display="inline"><path id="path6" fill="#000" stroke="none" d="m 8.625,8.625 0,4.46875 4.46875,0 0,-4.46875 -4.46875,0 z m 6.34375,0 0,0.65625 0.65625,0 0,-0.65625 -0.65625,0 z m 1.28125,0 0,1.28125 0.625,0 0,-1.28125 -0.625,0 z m 1.28125,0 0,4.46875 4.4375,0 0,-4.46875 -4.4375,0 z m -8.25,0.65625 3.15625,0 0,3.15625 -3.15625,0 0,-3.15625 z m 8.875,0 3.1875,0 0,3.15625 -3.1875,0 0,-3.15625 z"/><path id="path10" fill="#000" stroke="none" d="M 9.90625 9.90625 L 9.90625 11.8125 L 11.8125 11.8125 L 11.8125 9.90625 L 9.90625 9.90625 z M 13.71875 9.90625 L 13.71875 10.53125 L 14.34375 10.53125 L 14.34375 9.90625 L 13.71875 9.90625 z M 14.96875 9.90625 L 14.96875 10.53125 L 15.625 10.53125 L 15.625 9.90625 L 14.96875 9.90625 z M 18.78125 9.90625 L 18.78125 11.8125 L 20.6875 11.8125 L 20.6875 9.90625 L 18.78125 9.90625 z M 16.25 10.53125 L 16.25 11.1875 L 15.625 11.1875 L 15.625 11.8125 L 14.96875 11.8125 L 14.96875 11.1875 L 14.34375 11.1875 L 14.34375 12.4375 L 14.96875 12.4375 L 14.96875 14.34375 L 15.625 14.34375 L 15.625 12.4375 L 16.25 12.4375 L 16.25 11.8125 L 16.875 11.8125 L 16.875 10.53125 L 16.25 10.53125 z M 16.25 12.4375 L 16.25 13.09375 L 16.875 13.09375 L 16.875 12.4375 L 16.25 12.4375 z M 15.625 14.34375 L 15.625 15.625 L 14.96875 15.625 L 14.96875 16.25 L 15.625 16.25 L 15.625 16.875 L 13.71875 16.875 L 13.71875 19.4375 L 14.34375 19.4375 L 14.34375 20.0625 L 13.71875 20.0625 L 13.71875 21.96875 L 14.34375 21.96875 L 14.34375 21.34375 L 14.96875 21.34375 L 14.96875 20.0625 L 15.625 20.0625 L 15.625 21.96875 L 16.875 21.96875 L 16.875 21.34375 L 16.25 21.34375 L 16.25 20.6875 L 17.53125 20.6875 L 17.53125 20.0625 L 16.875 20.0625 L 16.875 18.78125 L 15.625 18.78125 L 15.625 19.4375 L 14.96875 19.4375 L 14.96875 18.78125 L 14.34375 18.78125 L 14.34375 18.15625 L 15.625 18.15625 L 15.625 17.53125 L 16.25 17.53125 L 16.25 16.25 L 16.875 16.25 L 16.875 15.625 L 16.25 15.625 L 16.25 14.34375 L 15.625 14.34375 z M 16.25 14.34375 L 16.875 14.34375 L 16.875 14.96875 L 17.53125 14.96875 L 17.53125 14.34375 L 18.15625 14.34375 L 18.15625 13.71875 L 16.25 13.71875 L 16.25 14.34375 z M 18.15625 14.34375 L 18.15625 14.96875 L 18.78125 14.96875 L 18.78125 15.625 L 18.15625 15.625 L 18.15625 16.25 L 18.78125 16.25 L 18.78125 16.875 L 19.4375 16.875 L 19.4375 15.625 L 20.0625 15.625 L 20.0625 14.34375 L 18.15625 14.34375 z M 20.0625 14.34375 L 20.6875 14.34375 L 20.6875 13.71875 L 20.0625 13.71875 L 20.0625 14.34375 z M 20.6875 14.34375 L 20.6875 15.625 L 21.34375 15.625 L 21.34375 16.875 L 21.96875 16.875 L 21.96875 14.34375 L 20.6875 14.34375 z M 19.4375 16.875 L 19.4375 17.53125 L 18.15625 17.53125 L 18.15625 18.15625 L 20.6875 18.15625 L 20.6875 19.4375 L 20.0625 19.4375 L 20.0625 20.0625 L 21.34375 20.0625 L 21.34375 18.15625 L 21.96875 18.15625 L 21.96875 17.53125 L 20.0625 17.53125 L 20.0625 16.875 L 19.4375 16.875 z M 21.34375 20.0625 L 21.34375 20.6875 L 21.96875 20.6875 L 21.96875 20.0625 L 21.34375 20.0625 z M 21.34375 20.6875 L 20.6875 20.6875 L 20.6875 21.96875 L 21.96875 21.96875 L 21.96875 21.34375 L 21.34375 21.34375 L 21.34375 20.6875 z M 18.15625 16.25 L 17.53125 16.25 L 17.53125 16.875 L 18.15625 16.875 L 18.15625 16.25 z M 17.53125 16.875 L 16.875 16.875 L 16.875 17.53125 L 16.25 17.53125 L 16.25 18.15625 L 17.53125 18.15625 L 17.53125 16.875 z M 17.53125 20.0625 L 18.15625 20.0625 L 18.15625 19.4375 L 17.53125 19.4375 L 17.53125 20.0625 z M 18.15625 20.0625 L 18.15625 21.34375 L 18.78125 21.34375 L 18.78125 20.6875 L 19.4375 20.6875 L 19.4375 20.0625 L 18.15625 20.0625 z M 19.4375 20.6875 L 19.4375 21.34375 L 20.0625 21.34375 L 20.0625 20.6875 L 19.4375 20.6875 z M 19.4375 21.34375 L 18.78125 21.34375 L 18.78125 21.96875 L 19.4375 21.96875 L 19.4375 21.34375 z M 13.71875 16.875 L 13.71875 16.25 L 12.4375 16.25 L 12.4375 16.875 L 13.71875 16.875 z M 12.4375 16.25 L 12.4375 15.625 L 13.09375 15.625 L 13.09375 14.96875 L 12.4375 14.96875 L 12.4375 14.34375 L 14.34375 14.34375 L 14.34375 12.4375 L 13.71875 12.4375 L 13.71875 13.71875 L 11.1875 13.71875 L 11.1875 14.34375 L 11.8125 14.34375 L 11.8125 16.25 L 12.4375 16.25 z M 11.1875 14.34375 L 10.53125 14.34375 L 10.53125 14.96875 L 11.1875 14.96875 L 11.1875 14.34375 z M 10.53125 14.96875 L 9.90625 14.96875 L 9.90625 15.625 L 10.53125 15.625 L 10.53125 14.96875 z M 9.90625 15.625 L 8.625 15.625 L 8.625 16.875 L 9.90625 16.875 L 9.90625 15.625 z M 9.90625 14.96875 L 9.90625 14.34375 L 10.53125 14.34375 L 10.53125 13.71875 L 8.625 13.71875 L 8.625 14.34375 L 9.28125 14.34375 L 9.28125 14.96875 L 9.90625 14.96875 z"/><path id="path14" fill="#000" stroke="none" d="m 13.71875,14.96875 0,1.28125 0.625,0 0,-1.28125 -0.625,0 z m 3.8125,0 0,0.65625 0.625,0 0,-0.65625 -0.625,0 z m -7,1.28125 0,0.625 0.65625,0 0,-0.625 -0.65625,0 z m -1.90625,1.28125 0,4.4375 4.46875,0 0,-4.4375 -4.46875,0 z m 0.65625,0.625 3.15625,0 0,3.1875 -3.15625,0 0,-3.1875 z"/><path id="path18" fill="#000" stroke="none" d="m 9.9043479,18.791304 0,1.904348 1.9043481,0 0,-1.904348 -1.9043481,0 m 8.8869561,0 0,0.634783 0.634783,0 0,-0.634783 -0.634783,0 z"/></g></svg>