<svg xmlns="http://www.w3.org/2000/svg" xmlns:svg="http://www.w3.org/2000/svg" xmlns:xlink="http://www.w3.org/1999/xlink" id="svg3027" width="1024" height="500" version="1.1"><defs id="defs3029"><linearGradient id="linearGradient6049" x1="340.412" x2="523.588" y1="481.507" y2="481.507" gradientTransform="matrix(1.4585784,0,0,1.4585784,-198.10585,-178.10619)" gradientUnits="userSpaceOnUse" xlink:href="#linearGradient3903"/><linearGradient id="linearGradient3903-0"><stop id="stop3905-0" offset="0" stop-color="#000" stop-opacity=".176"/><stop id="stop3915-03" offset=".25" stop-color="#000" stop-opacity=".098"/><stop id="stop3919-2" offset=".5" stop-color="#000" stop-opacity=".059"/><stop id="stop3917-29" offset=".75" stop-color="#000" stop-opacity=".098"/><stop id="stop3907-6" offset="1" stop-color="#000" stop-opacity=".176"/></linearGradient><linearGradient id="linearGradient5962-5" x1="340.412" x2="523.588" y1="481.507" y2="481.507" gradientUnits="userSpaceOnUse" xlink:href="#linearGradient3903-0"/><linearGradient id="linearGradient3903-3-2"><stop id="stop3905-2-3" offset="0" stop-color="#000" stop-opacity=".157"/><stop id="stop3915-0-3" offset=".2" stop-color="#000" stop-opacity=".059"/><stop id="stop3919-4-8" offset=".5" stop-color="#000" stop-opacity=".02"/><stop id="stop3917-2-6" offset=".8" stop-color="#000" stop-opacity=".059"/><stop id="stop3907-9-6" offset="1" stop-color="#000" stop-opacity=".157"/></linearGradient><linearGradient id="linearGradient5942" x1="363.031" x2="500.969" y1="342.449" y2="342.449" gradientTransform="matrix(1.4585784,0,0,1.4585784,-198.10585,-178.10619)" gradientUnits="userSpaceOnUse" xlink:href="#linearGradient3903-3"/><linearGradient id="linearGradient3903-3"><stop id="stop3905-2" offset="0" stop-color="#000" stop-opacity=".176"/><stop id="stop3915-0" offset=".25" stop-color="#000" stop-opacity=".098"/><stop id="stop3919-4" offset=".5" stop-color="#000" stop-opacity=".059"/><stop id="stop3917-2" offset=".75" stop-color="#000" stop-opacity=".098"/><stop id="stop3907-9" offset="1" stop-color="#000" stop-opacity=".176"/></linearGradient><linearGradient id="linearGradient3911-5" x1="32" x2="832" y1="432" y2="432" gradientTransform="matrix(0.99875033,0,0,0.99826344,0.53986459,0.7502204)" gradientUnits="userSpaceOnUse" xlink:href="#linearGradient3903-3"/><linearGradient id="linearGradient3903"><stop id="stop3905" offset="0" stop-color="#000" stop-opacity=".176"/><stop id="stop3915" offset=".25" stop-color="#000" stop-opacity=".098"/><stop id="stop3919" offset=".5" stop-color="#000" stop-opacity=".059"/><stop id="stop3917" offset=".75" stop-color="#000" stop-opacity=".098"/><stop id="stop3907" offset="1" stop-color="#000" stop-opacity=".176"/></linearGradient><linearGradient id="linearGradient5944"><stop id="stop5952" offset="0" stop-color="#000" stop-opacity=".098"/><stop id="stop5954" offset="1" stop-color="#000" stop-opacity=".098"/></linearGradient><linearGradient id="linearGradient3248" x1="23" x2="841" y1="431" y2="431" gradientUnits="userSpaceOnUse" xlink:href="#linearGradient3903-3-2"/><linearGradient id="linearGradient3250" x1="267" x2="597" y1="522" y2="522" gradientUnits="userSpaceOnUse" xlink:href="#linearGradient3903-3-2"/><radialGradient id="radialGradient3252" cx="430.75" cy="269.5" r="123.75" fx="430.75" fy="269.5" gradientTransform="matrix(1,0,0,0.72727297,0,73.499943)" gradientUnits="userSpaceOnUse" xlink:href="#linearGradient3903-0"/><filter id="filter3854" width="1.3" height="1.3" x="-.15" y="-.15" color-interpolation-filters="sRGB"><feTurbulence id="feTurbulence3856" baseFrequency=".04" numOctaves="5" result="result4" seed="0" type="fractalNoise"/><feDisplacementMap id="feDisplacementMap3858" in="SourceGraphic" in2="result4" result="result3" scale="10" xChannelSelector="R" yChannelSelector="G"/><feDiffuseLighting id="feDiffuseLighting3860" diffuseConstant="1" in="result4" lighting-color="#E9E6D7" result="result1" surfaceScale="2"><feDistantLight id="feDistantLight3862" azimuth="235" elevation="40"/></feDiffuseLighting><feComposite id="feComposite3864" in="result3" in2="result1" operator="in" result="result2"/><feComposite id="feComposite3866" in2="result1" k1="1.7" operator="arithmetic" result="result5"/><feBlend id="feBlend3868" in="result5" in2="result3" mode="normal"/></filter></defs><metadata id="metadata3032"/><g id="layer2" opacity=".3"><rect id="rect3032" width="1124" height="600" x="-50" y="-50" fill="#ffffde" fill-opacity=".871" fill-rule="nonzero" stroke="none" filter="url(#filter3854)"/></g><g id="layer1" transform="translate(0,-552.36218)"><g id="g3224" transform="matrix(0.40342298,0,0,0.40342298,91.309473,628.48688)"><g id="layer3" display="inline"><rect id="rect2994-9" width="798.003" height="574.003" x="32" y="145.997" fill="#fafae6" fill-opacity="1" stroke="none" display="inline"/></g><g id="layer1-6" display="inline"><rect id="rect2994" width="800" height="578" x="32" y="142" fill="url(#linearGradient3248)" fill-opacity="1" stroke="#000" stroke-dasharray="none" stroke-miterlimit="4" stroke-opacity="1" stroke-width="18"/><path id="path3044-9" fill="none" stroke="#000" stroke-dasharray="none" stroke-linecap="round" stroke-linejoin="miter" stroke-miterlimit="4" stroke-opacity="1" stroke-width="18" d="M 32.99995,144.99995 431.99998,479.00212 831.00005,144.99995 M 375.41474,431.99882 33.000566,719.00005 m 797.998874,0 -342.41418,-287.00123"/></g><g id="g6041" display="inline"><path id="path6043" fill="#ffda00" fill-opacity="1" fill-rule="nonzero" stroke="#000" stroke-dasharray="none" stroke-miterlimit="4" stroke-opacity="1" stroke-width="8.9" d="m 267,359.5 0,325 330,0 0,-325 -330,0 z M 432,418 c 29.82337,0 54,24.17661 54,54 0,19.98456 -10.86345,37.41209 -27,46.75 l 0,107.25 -54,0 0,-107.25 c -16.13656,-9.33791 -27,-26.76544 -27,-46.75 0,-29.82339 24.17662,-54 54,-54 z"/><path id="path6045" fill="#faffff" fill-opacity="1" stroke="#000" stroke-dasharray="none" stroke-miterlimit="4" stroke-opacity="1" stroke-width="9" d="m 369.75735,359.49999 0,-57.36595 c 0.21395,-6.69058 1.48284,-13.34882 3.92587,-19.62604 8.34674,-22.92119 31.23869,-39.42587 55.47413,-39.71118 0.75084,-0.0301 1.52631,-0.0581 2.27586,-0.0572 23.23569,0.0265 45.61943,14.77505 54.96208,36.26801 3.26038,7.2537 5.06733,15.16666 5.34827,23.12659 l 0,57.36584 M 554.5,359.5 554.49909,302.13415 C 553.31086,234.20574 498.38227,179.5 430.74976,179.5 363.11725,179.5 308.18822,234.20574 307,302.13405 L 307,359.5"/></g><g id="g4234" display="inline"><path id="path4236" fill="url(#linearGradient3250)" fill-opacity="1" fill-rule="nonzero" stroke="none" d="m 267,359.5 0,325 330,0 0,-325 -330,0 z M 432,418 c 29.82337,0 54,24.17661 54,54 0,19.98456 -10.86345,37.41209 -27,46.75 l 0,107.25 -54,0 0,-107.25 c -16.13656,-9.33791 -27,-26.76544 -27,-46.75 0,-29.82339 24.17662,-54 54,-54 z"/><path id="path4238" fill="url(#radialGradient3252)" fill-opacity="1" stroke="none" d="m 369.75735,359.49999 0,-57.36595 c 0.21395,-6.69058 1.48284,-13.34882 3.92587,-19.62604 8.34674,-22.92119 31.23869,-39.42587 55.47413,-39.71118 0.75084,-0.0301 1.52631,-0.0581 2.27586,-0.0572 23.23569,0.0265 45.61943,14.77505 54.96208,36.26801 3.26038,7.2537 5.06733,15.16666 5.34827,23.12659 l 0,57.36584 M 554.5,359.5 554.49909,302.13415 C 553.31086,234.20574 498.38227,179.5 430.74976,179.5 363.11725,179.5 308.18822,234.20574 307,302.13405 L 307,359.5"/></g></g><text id="text3273" x="497.533" y="863.971" fill="#000" fill-opacity="1" stroke="none" font-family="Webdings" font-size="40" font-stretch="normal" font-style="normal" font-variant="normal" font-weight="normal" letter-spacing="0" word-spacing="0" xml:space="preserve" style="line-height:125%;-inkscape-font-specification:Webdings"><tspan id="tspan3277" x="497.533" y="863.971" font-family="Arial" font-size="175" font-stretch="normal" font-style="normal" font-variant="normal" font-weight="bold" style="-inkscape-font-specification:Arial Bold">Bote.</tspan></text></g></svg>