<svg xmlns="http://www.w3.org/2000/svg" xmlns:svg="http://www.w3.org/2000/svg" xmlns:xlink="http://www.w3.org/1999/xlink" id="svg2" width="864" height="864" version="1.1"><defs id="defs4"><linearGradient id="linearGradient5944"><stop id="stop5952" offset="0" stop-color="#000" stop-opacity=".098"/><stop id="stop5954" offset="1" stop-color="#000" stop-opacity=".098"/></linearGradient><linearGradient id="linearGradient3903"><stop id="stop3905" offset="0" stop-color="#000" stop-opacity=".176"/><stop id="stop3915" offset=".25" stop-color="#000" stop-opacity=".098"/><stop id="stop3919" offset=".5" stop-color="#000" stop-opacity=".059"/><stop id="stop3917" offset=".75" stop-color="#000" stop-opacity=".098"/><stop id="stop3907" offset="1" stop-color="#000" stop-opacity=".176"/></linearGradient><linearGradient id="linearGradient3911-5" x1="32" x2="832" y1="432" y2="432" gradientTransform="matrix(0.99875033,0,0,0.99826344,0.53986459,0.7502204)" gradientUnits="userSpaceOnUse" xlink:href="#linearGradient3903-3"/><linearGradient id="linearGradient3903-3"><stop id="stop3905-2" offset="0" stop-color="#000" stop-opacity=".176"/><stop id="stop3915-0" offset=".25" stop-color="#000" stop-opacity=".098"/><stop id="stop3919-4" offset=".5" stop-color="#000" stop-opacity=".059"/><stop id="stop3917-2" offset=".75" stop-color="#000" stop-opacity=".098"/><stop id="stop3907-9" offset="1" stop-color="#000" stop-opacity=".176"/></linearGradient><linearGradient id="linearGradient5942" x1="363.031" x2="500.969" y1="342.449" y2="342.449" gradientTransform="matrix(1.4585784,0,0,1.4585784,-198.10585,-178.10619)" gradientUnits="userSpaceOnUse" xlink:href="#linearGradient3903-3"/><linearGradient id="linearGradient3903-3-2"><stop id="stop3905-2-3" offset="0" stop-color="#000" stop-opacity=".176"/><stop id="stop3915-0-3" offset=".25" stop-color="#000" stop-opacity=".098"/><stop id="stop3919-4-8" offset=".5" stop-color="#000" stop-opacity=".059"/><stop id="stop3917-2-6" offset=".75" stop-color="#000" stop-opacity=".098"/><stop id="stop3907-9-6" offset="1" stop-color="#000" stop-opacity=".176"/></linearGradient><linearGradient id="linearGradient5962-5" x1="340.412" x2="523.588" y1="481.507" y2="481.507" gradientUnits="userSpaceOnUse" xlink:href="#linearGradient3903-0"/><linearGradient id="linearGradient3903-0"><stop id="stop3905-0" offset="0" stop-color="#000" stop-opacity=".176"/><stop id="stop3915-03" offset=".25" stop-color="#000" stop-opacity=".098"/><stop id="stop3919-2" offset=".5" stop-color="#000" stop-opacity=".059"/><stop id="stop3917-29" offset=".75" stop-color="#000" stop-opacity=".098"/><stop id="stop3907-6" offset="1" stop-color="#000" stop-opacity=".176"/></linearGradient><linearGradient id="linearGradient6049" x1="340.412" x2="523.588" y1="481.507" y2="481.507" gradientTransform="matrix(1.4585784,0,0,1.4585784,-198.10585,-178.10619)" gradientUnits="userSpaceOnUse" xlink:href="#linearGradient3903"/></defs><metadata id="metadata7"/><g id="layer3" display="inline"><rect id="rect2994-9" width="798.003" height="574.003" x="32" y="145.997" fill="#fafae6" fill-opacity="1" stroke="none" display="inline"/></g><g id="layer1" display="inline"><rect id="rect2994" width="800" height="578" x="32" y="142" fill="#b3b3b3" fill-opacity="1" stroke="none"/><path id="path3044-9" fill="none" stroke="#000" stroke-dasharray="none" stroke-linecap="round" stroke-linejoin="miter" stroke-miterlimit="4" stroke-opacity="1" stroke-width="36" d="M 32.99995,144.99995 431.99998,479.00212 831.00005,144.99995 M 375.41474,431.99882 33.000566,719.00005 m 797.998874,0 -342.41418,-287.00123"/></g><g id="g6041" display="inline"><path id="path6043" fill="#ffda00" fill-opacity="1" fill-rule="nonzero" stroke="none" d="m 267,352.00003 0,340 330,0 0,-340 -330,0 z m 165,80.54046 c 20.333,0 36.82476,17.28664 36.82476,38.59975 0,17.02222 -10.50755,31.44372 -25.10002,36.57132 l 0,103.74803 -23.44948,0 0,-103.74803 c -14.57211,-5.13964 -25.10002,-19.5643 -25.10002,-36.57131 0,-21.31312 16.49176,-38.59976 36.82476,-38.59976 z"/><path id="path6045" fill="#faffff" fill-opacity="1" stroke="none" d="m 369.75735,351.99996 0,-57.36595 c 0.21395,-6.69058 1.48284,-13.34882 3.92587,-19.62604 8.34674,-22.92119 31.23869,-39.42587 55.47413,-39.71118 0.75084,-0.0301 1.52631,-0.0581 2.27586,-0.0572 23.23569,0.0265 45.61943,14.77505 54.96208,36.26801 3.26038,7.2537 5.06733,15.16666 5.34827,23.12659 l 0,57.36584 m 62.75644,-6e-5 -9.1e-4,-57.36585 C 553.31086,226.70571 498.38227,171.99997 430.74976,171.99997 363.11725,171.99997 308.18822,226.70571 307,294.63402 l 0,57.36595"/><path id="rect3796" fill="#b3b3b3" fill-opacity="1" fill-rule="nonzero" stroke="none" d="m 396,511.50001 72,0 0,128 -72,0 z m 99,-43.99996 c 0,34.79393 -28.20606,62.99999 -62.99999,62.99999 -34.79394,0 -63.00001,-28.20606 -63.00001,-62.99999 0,-34.79395 28.20607,-63.00001 63.00001,-63.00001 34.79393,0 62.99999,28.20606 62.99999,63.00001 z"/></g></svg>