<svg xmlns="http://www.w3.org/2000/svg" xmlns:svg="http://www.w3.org/2000/svg" xmlns:xlink="http://www.w3.org/1999/xlink" id="svg2" width="864" height="864" version="1.1"><defs id="defs4"><linearGradient id="linearGradient5944"><stop id="stop5952" offset="0" stop-color="#000" stop-opacity=".098"/><stop id="stop5954" offset="1" stop-color="#000" stop-opacity=".098"/></linearGradient><linearGradient id="linearGradient3903"><stop id="stop3905" offset="0" stop-color="#000" stop-opacity=".176"/><stop id="stop3915" offset=".25" stop-color="#000" stop-opacity=".098"/><stop id="stop3919" offset=".5" stop-color="#000" stop-opacity=".059"/><stop id="stop3917" offset=".75" stop-color="#000" stop-opacity=".098"/><stop id="stop3907" offset="1" stop-color="#000" stop-opacity=".176"/></linearGradient><linearGradient id="linearGradient3911-5" x1="32" x2="832" y1="432" y2="432" gradientTransform="matrix(0.99875033,0,0,0.99826344,0.53986459,0.7502204)" gradientUnits="userSpaceOnUse" xlink:href="#linearGradient3903-3"/><linearGradient id="linearGradient3903-3"><stop id="stop3905-2" offset="0" stop-color="#000" stop-opacity=".176"/><stop id="stop3915-0" offset=".25" stop-color="#000" stop-opacity=".098"/><stop id="stop3919-4" offset=".5" stop-color="#000" stop-opacity=".059"/><stop id="stop3917-2" offset=".75" stop-color="#000" stop-opacity=".098"/><stop id="stop3907-9" offset="1" stop-color="#000" stop-opacity=".176"/></linearGradient><linearGradient id="linearGradient5942" x1="363.031" x2="500.969" y1="342.449" y2="342.449" gradientTransform="matrix(1.4585784,0,0,1.4585784,-198.10585,-178.10619)" gradientUnits="userSpaceOnUse" xlink:href="#linearGradient3903-3"/><linearGradient id="linearGradient3903-3-2"><stop id="stop3905-2-3" offset="0" stop-color="#000" stop-opacity=".176"/><stop id="stop3915-0-3" offset=".25" stop-color="#000" stop-opacity=".098"/><stop id="stop3919-4-8" offset=".5" stop-color="#000" stop-opacity=".059"/><stop id="stop3917-2-6" offset=".75" stop-color="#000" stop-opacity=".098"/><stop id="stop3907-9-6" offset="1" stop-color="#000" stop-opacity=".176"/></linearGradient><linearGradient id="linearGradient5962-5" x1="340.412" x2="523.588" y1="481.507" y2="481.507" gradientUnits="userSpaceOnUse" xlink:href="#linearGradient3903-0"/><linearGradient id="linearGradient3903-0"><stop id="stop3905-0" offset="0" stop-color="#000" stop-opacity=".176"/><stop id="stop3915-03" offset=".25" stop-color="#000" stop-opacity=".098"/><stop id="stop3919-2" offset=".5" stop-color="#000" stop-opacity=".059"/><stop id="stop3917-29" offset=".75" stop-color="#000" stop-opacity=".098"/><stop id="stop3907-6" offset="1" stop-color="#000" stop-opacity=".176"/></linearGradient><linearGradient id="linearGradient6049" x1="340.412" x2="523.588" y1="481.507" y2="481.507" gradientTransform="matrix(1.4585784,0,0,1.4585784,-198.10585,-178.10619)" gradientUnits="userSpaceOnUse" xlink:href="#linearGradient3903"/><clipPath id="clipPath4056" clipPathUnits="userSpaceOnUse"><path id="path4058" fill="#000" fill-opacity="1" stroke="none" d="M 57.46875,142 307,350.875 l 0,-56.25 C 308.18822,226.69669 363.11749,172 430.75,172 c 67.63251,0 122.56177,54.69659 123.75,122.625 l 0,57.375 1.15625,0 250.875,-210 -749.0625,0 z M 32,167.65625 32,696.375 267,499.40625 267,364.375 32,167.65625 z m 800,0 L 597,364.375 597,499.40625 832,696.375 832,167.65625 z M 431.4375,235.25 c -0.74955,-0.001 -1.53041,0.001 -2.28125,0.0312 -24.23544,0.28531 -47.12201,16.79756 -55.46875,39.71875 -2.44303,6.27722 -3.72355,12.93442 -3.9375,19.625 l 0,57.375 122,0 0,-57.375 c -0.28094,-7.95993 -2.08337,-15.8713 -5.34375,-23.125 -9.34265,-21.49296 -31.73306,-36.2235 -54.96875,-36.25 z M 432,404.5 c -34.79394,0 -63,28.20605 -63,63 0,21.40237 10.6868,40.3019 27,51.6875 l 0,120.3125 72,0 0,-120.3125 c 16.31319,-11.3856 27,-30.28513 27,-51.6875 0,-34.79395 -28.20607,-63 -63,-63 z M 267,546.34375 59.8125,720 804.1875,720 597,546.34375 597,692 l -330,0 0,-145.65625 z" display="inline"/></clipPath></defs><metadata id="metadata7"/><g id="layer1" display="inline"><rect id="rect2994" width="800" height="578" x="32" y="142" fill="#fff" fill-opacity="1" stroke="none" clip-path="url(#clipPath4056)"/></g></svg>